{
  "accessors": [
    {
      "bufferView": 2,
      "componentType": 5126,
      "count": 8,
      "max": [1.147744059562683, -0.7428560256958008, 0.9978500008583069],
      "min": [-0.23131799697875977, -0.7962039709091187, 0.23494300246238708],
      "type": "VEC3"
    },
    {
      "bufferView": 2,
      "byteOffset": 96,
      "componentType": 5126,
      "count": 8,
      "max": [0.0, -0.9975612759590149, -0.06979728490114212],
      "min": [0.0, -0.9975612759590149, -0.06979728490114212],
      "type": "VEC3"
    },
    {
      "bufferView": 1,
      "componentType": 5126,
      "count": 8,
      "max": [0.3704819977283478, 0.5471590161323547],
      "min": [0.05788800120353699, 0.0],
      "type": "VEC2"
    },
    {
      "bufferView": 0,
      "componentType": 5125,
      "count": 24,
      "type": "SCALAR"
    },
    {
      "bufferView": 2,
      "byteOffset": 192,
      "componentType": 5126,
      "count": 223,
      "max": [1.147744059562683, -0.5898290276527405, 0.3334049880504608],
      "min": [-0.23131799697875977, -0.971235990524292, -0.0012659999774768949],
      "type": "VEC3"
    },
    {
      "bufferView": 2,
      "byteOffset": 2868,
      "componentType": 5126,
      "count": 223,
      "max": [1.0, 1.0, 1.0],
      "min": [-1.0, -1.0, -1.0],
      "type": "VEC3"
    },
    {
      "bufferView": 1,
      "byteOffset": 64,
      "componentType": 5126,
      "count": 223,
      "max": [0.9698169827461243, 1.0],
      "min": [0.0, 0.0],
      "type": "VEC2"
    },
    {
      "bufferView": 0,
      "byteOffset": 96,
      "componentType": 5125,
      "count": 387,
      "type": "SCALAR"
    },
    {
      "bufferView": 2,
      "byteOffset": 5544,
      "componentType": 5126,
      "count": 32,
      "max": [1.147744059562683, -0.7310680150985718, 0.9978500008583069],
      "min": [-0.23131799697875977, -0.8796129822731018, 0.060527998954057693],
      "type": "VEC3"
    },
    {
      "bufferView": 2,
      "byteOffset": 5928,
      "componentType": 5126,
      "count": 32,
      "max": [1.0, 0.994385302066803, 0.9975612759590149],
      "min": [-1.0, -0.9975612759590149, -0.9975612759590149],
      "type": "VEC3"
    },
    {
      "bufferView": 1,
      "byteOffset": 1848,
      "componentType": 5126,
      "count": 32,
      "max": [1.0, 0.8927099704742432],
      "min": [0.0, 0.0],
      "type": "VEC2"
    },
    {
      "bufferView": 0,
      "byteOffset": 1644,
      "componentType": 5125,
      "count": 54,
      "type": "SCALAR"
    },
    {
      "bufferView": 2,
      "byteOffset": 6312,
      "componentType": 5126,
      "count": 4,
      "max": [1.1255860328674316, -0.7444019913673401, 0.9757450222969055],
      "min": [-0.2091600000858307, -0.7946580052375793, 0.25704699754714966],
      "type": "VEC3"
    },
    {
      "bufferView": 2,
      "byteOffset": 6360,
      "componentType": 5126,
      "count": 4,
      "max": [0.0, -0.9975612759590149, -0.06979728490114212],
      "min": [0.0, -0.9975612759590149, -0.06979728490114212],
      "type": "VEC3"
    },
    {
      "bufferView": 1,
      "byteOffset": 2104,
      "componentType": 5126,
      "count": 4,
      "max": [0.9679880142211914, 0.7618610262870789],
      "min": [0.0324070006608963, 0.23813900351524353],
      "type": "VEC2"
    },
    {
      "bufferView": 0,
      "byteOffset": 1860,
      "componentType": 5125,
      "count": 6,
      "type": "SCALAR"
    },
    {
      "bufferView": 2,
      "byteOffset": 6408,
      "componentType": 5126,
      "count": 90,
      "max": [0.8626030087471008, -0.202891007065773, 0.033959999680519104],
      "min": [0.11664900183677673, -0.38570600748062134, 0.0053519997745752335],
      "type": "VEC3"
    },
    {
      "bufferView": 2,
      "byteOffset": 7488,
      "componentType": 5126,
      "count": 90,
      "max": [1.0, 0.9954679608345032, 0.9954679608345032],
      "min": [-1.0, -0.9615013599395752, -0.9954679608345032],
      "type": "VEC3"
    },
    {
      "bufferView": 1,
      "byteOffset": 2136,
      "componentType": 5126,
      "count": 90,
      "max": [1.0, 1.0],
      "min": [0.0, 0.0],
      "type": "VEC2"
    },
    {
      "bufferView": 0,
      "byteOffset": 1884,
      "componentType": 5125,
      "count": 132,
      "type": "SCALAR"
    },
    {
      "bufferView": 2,
      "byteOffset": 8568,
      "componentType": 5126,
      "count": 263,
      "max": [0.813289999961853, -0.28758901357650757, 0.044964998960494995],
      "min": [0.16575099527835846, -0.4193750023841858, 0.007660000119358301],
      "type": "VEC3"
    },
    {
      "bufferView": 2,
      "byteOffset": 11724,
      "componentType": 5126,
      "count": 263,
      "max": [1.0, 0.9995132088661194, 0.9999995231628418],
      "min": [-1.0, -0.9934810400009155, -0.9999908208847046],
      "type": "VEC3"
    },
    {
      "bufferView": 1,
      "byteOffset": 2856,
      "componentType": 5126,
      "count": 263,
      "max": [1.0, 1.0],
      "min": [0.0, 0.0],
      "type": "VEC2"
    },
    {
      "bufferView": 0,
      "byteOffset": 2412,
      "componentType": 5125,
      "count": 516,
      "type": "SCALAR"
    },
    {
      "bufferView": 2,
      "byteOffset": 14880,
      "componentType": 5126,
      "count": 301,
      "max": [0.015647999942302704, -0.18909400701522827, 0.0687130019068718],
      "min": [-0.09900999814271927, -0.3928939998149872, 0.0024319998919963837],
      "type": "VEC3"
    },
    {
      "bufferView": 2,
      "byteOffset": 18492,
      "componentType": 5126,
      "count": 301,
      "max": [0.9896783232688904, 0.9747416973114014, 0.9918615818023682],
      "min": [-0.9984800219535828, -0.9567357301712036, -0.9644489884376526],
      "type": "VEC3"
    },
    {
      "bufferView": 1,
      "byteOffset": 4960,
      "componentType": 5126,
      "count": 301,
      "max": [1.0, 1.0],
      "min": [0.0, 0.0],
      "type": "VEC2"
    },
    {
      "bufferView": 0,
      "byteOffset": 4476,
      "componentType": 5125,
      "count": 1158,
      "type": "SCALAR"
    },
    {
      "bufferView": 2,
      "byteOffset": 22104,
      "componentType": 5126,
      "count": 50,
      "max": [1.147744059562683, -0.7088789939880371, 0.23496299982070923],
      "min": [-0.23131799697875977, -0.7428460121154785, 0.09499099850654602],
      "type": "VEC3"
    },
    {
      "bufferView": 2,
      "byteOffset": 22704,
      "componentType": 5126,
      "count": 50,
      "max": [1.0, 0.9723310470581055, 0.9723537564277649],
      "min": [-1.0, -0.9975681304931641, -0.9723310470581055],
      "type": "VEC3"
    },
    {
      "bufferView": 1,
      "byteOffset": 7368,
      "componentType": 5126,
      "count": 50,
      "max": [1.0, 0.7221159934997559],
      "min": [0.0, 0.0],
      "type": "VEC2"
    },
    {
      "bufferView": 0,
      "byteOffset": 9108,
      "componentType": 5125,
      "count": 84,
      "type": "SCALAR"
    },
    {
      "bufferView": 2,
      "byteOffset": 23304,
      "componentType": 5126,
      "count": 600,
      "max": [-0.03760699927806854, -0.3330709934234619, 0.05957899987697601],
      "min": [-0.04945899918675423, -0.3576680123806, 0.03441900014877319],
      "type": "VEC3"
    },
    {
      "bufferView": 2,
      "byteOffset": 30504,
      "componentType": 5126,
      "count": 600,
      "max": [1.0, 0.9987329840660095, 0.9987949728965759],
      "min": [-1.0, -0.9987329840660095, -0.9987949728965759],
      "type": "VEC3"
    },
    {
      "bufferView": 1,
      "byteOffset": 7768,
      "componentType": 5126,
      "count": 600,
      "max": [1.0, 1.0],
      "min": [0.0, 0.009999999776482582],
      "type": "VEC2"
    },
    {
      "bufferView": 0,
      "byteOffset": 9444,
      "componentType": 5125,
      "count": 948,
      "type": "SCALAR"
    }
  ],
  "asset": {
    "extras": {
      "author": "GeniusPilot2016 (https://sketchfab.com/GeniusPilot2016)",
      "license": "CC-BY-4.0 (http://creativecommons.org/licenses/by/4.0/)",
      "source": "https://sketchfab.com/3d-models/all-in-one-desktop-computer-a8ddff0898ae49a09f152c3f29c503dc",
      "title": "All-In-One Desktop Computer"
    },
    "generator": "Sketchfab-13.46.0",
    "version": "2.0"
  },
  "bufferViews": [
    {
      "buffer": 0,
      "byteLength": 13236,
      "name": "floatBufferViews",
      "target": 34963
    },
    {
      "buffer": 0,
      "byteLength": 12568,
      "byteOffset": 13236,
      "byteStride": 8,
      "name": "floatBufferViews",
      "target": 34962
    },
    {
      "buffer": 0,
      "byteLength": 37704,
      "byteOffset": 25804,
      "byteStride": 12,
      "name": "floatBufferViews",
      "target": 34962
    }
  ],
  "buffers": [
    {
      "byteLength": 63508,
      "uri": "scene.bin"
    }
  ],
  "images": [
    {
      "uri": "textures/case_baseColor.png"
    },
    {
      "uri": "textures/display_baseColor.png"
    },
    {
      "uri": "textures/keyboard1_baseColor.png"
    },
    {
      "uri": "textures/mouse1_baseColor.png"
    }
  ],
  "materials": [
    {
      "doubleSided": true,
      "name": "bezel",
      "pbrMetallicRoughness": {
        "baseColorFactor": [0.0, 0.0, 0.0, 1.0],
        "metallicFactor": 0.0,
        "roughnessFactor": 0.75
      }
    },
    {
      "doubleSided": true,
      "name": "body",
      "pbrMetallicRoughness": {
        "baseColorFactor": [
          0.07618538148130782, 0.07618538148130782, 0.07618538148130782, 1.0
        ],
        "metallicFactor": 0.0,
        "roughnessFactor": 0.75
      }
    },
    {
      "doubleSided": true,
      "name": "case",
      "pbrMetallicRoughness": {
        "baseColorTexture": {
          "index": 0
        },
        "metallicFactor": 1,
        "roughnessFactor": 0.5
      }
    },
    {
      "doubleSided": true,
      "emissiveFactor": [1.0, 1.0, 1.0],
      "emissiveTexture": {
        "index": 1
      },
      "name": "display",
      "pbrMetallicRoughness": {
        "baseColorTexture": {
          "index": 1
        },
        "metallicFactor": 1,
        "roughnessFactor": 0.5
      }
    },
    {
      "doubleSided": true,
      "name": "keyboard1",
      "pbrMetallicRoughness": {
        "baseColorTexture": {
          "index": 2
        },
        "metallicFactor": 0.75,
        "roughnessFactor": 1
      }
    },
    {
      "doubleSided": true,
      "name": "keyboard2",
      "pbrMetallicRoughness": {
        "baseColorFactor": [
          0.07618538148130782, 0.07618538148130782, 0.07618538148130782, 1.0
        ],
        "metallicFactor": 1,
        "roughnessFactor": 0.75
      }
    },
    {
      "doubleSided": true,
      "name": "mouse1",
      "pbrMetallicRoughness": {
        "baseColorTexture": {
          "index": 3
        },
        "metallicFactor": 1,
        "roughnessFactor": 0.5
      }
    },
    {
      "doubleSided": true,
      "name": "speaker",
      "pbrMetallicRoughness": {
        "baseColorFactor": [
          0.33716361504833037, 0.33716361504833037, 0.33716361504833037, 1.0
        ],
        "metallicFactor": 0.0,
        "roughnessFactor": 0.6
      }
    },
    {
      "doubleSided": true,
      "name": "wheel",
      "pbrMetallicRoughness": {
        "baseColorFactor": [
          0.07618538148130782, 0.07618538148130782, 0.07618538148130782, 1.0
        ],
        "metallicFactor": 0.0,
        "roughnessFactor": 0.75
      }
    }
  ],
  "meshes": [
    {
      "name": "Object_0",
      "primitives": [
        {
          "attributes": {
            "NORMAL": 1,
            "POSITION": 0,
            "TEXCOORD_0": 2
          },
          "indices": 3,
          "material": 0,
          "mode": 4
        }
      ]
    },
    {
      "name": "Object_1",
      "primitives": [
        {
          "attributes": {
            "NORMAL": 5,
            "POSITION": 4,
            "TEXCOORD_0": 6
          },
          "indices": 7,
          "material": 1,
          "mode": 4
        }
      ]
    },
    {
      "name": "Object_2",
      "primitives": [
        {
          "attributes": {
            "NORMAL": 9,
            "POSITION": 8,
            "TEXCOORD_0": 10
          },
          "indices": 11,
          "material": 2,
          "mode": 4
        }
      ]
    },
    {
      "name": "Object_3",
      "primitives": [
        {
          "attributes": {
            "NORMAL": 13,
            "POSITION": 12,
            "TEXCOORD_0": 14
          },
          "indices": 15,
          "material": 3,
          "mode": 4
        }
      ]
    },
    {
      "name": "Object_4",
      "primitives": [
        {
          "attributes": {
            "NORMAL": 17,
            "POSITION": 16,
            "TEXCOORD_0": 18
          },
          "indices": 19,
          "material": 4,
          "mode": 4
        }
      ]
    },
    {
      "name": "Object_5",
      "primitives": [
        {
          "attributes": {
            "NORMAL": 21,
            "POSITION": 20,
            "TEXCOORD_0": 22
          },
          "indices": 23,
          "material": 5,
          "mode": 4
        }
      ]
    },
    {
      "name": "Object_6",
      "primitives": [
        {
          "attributes": {
            "NORMAL": 25,
            "POSITION": 24,
            "TEXCOORD_0": 26
          },
          "indices": 27,
          "material": 6,
          "mode": 4
        }
      ]
    },
    {
      "name": "Object_7",
      "primitives": [
        {
          "attributes": {
            "NORMAL": 29,
            "POSITION": 28,
            "TEXCOORD_0": 30
          },
          "indices": 31,
          "material": 7,
          "mode": 4
        }
      ]
    },
    {
      "name": "Object_8",
      "primitives": [
        {
          "attributes": {
            "NORMAL": 33,
            "POSITION": 32,
            "TEXCOORD_0": 34
          },
          "indices": 35,
          "material": 8,
          "mode": 4
        }
      ]
    }
  ],
  "nodes": [
    {
      "children": [1],
      "matrix": [
        0.7407407164573669, 0.0, 0.0, 0.0, 0.0, 1.6447747973766068e-16,
        -0.7407407164573669, 0.0, 0.0, 0.7407407164573669,
        1.6447747973766068e-16, 0.0, 0.0, 0.0, 0.0, 1.0
      ],
      "name": "Sketchfab_model"
    },
    {
      "children": [2, 3, 4, 5, 6, 7, 8, 9, 10],
      "name": "11eafbf121a9486eb7c49af1e2f7afec.obj.cleaner.materialmerger.gles"
    },
    {
      "mesh": 0,
      "name": "Object_2"
    },
    {
      "mesh": 1,
      "name": "Object_3"
    },
    {
      "mesh": 2,
      "name": "Object_4"
    },
    {
      "mesh": 3,
      "name": "Object_5"
    },
    {
      "mesh": 4,
      "name": "Object_6"
    },
    {
      "mesh": 5,
      "name": "Object_7"
    },
    {
      "mesh": 6,
      "name": "Object_8"
    },
    {
      "mesh": 7,
      "name": "Object_9"
    },
    {
      "mesh": 8,
      "name": "Object_10"
    }
  ],
  "samplers": [
    {
      "magFilter": 9729,
      "minFilter": 9987,
      "wrapS": 10497,
      "wrapT": 10497
    }
  ],
  "scene": 0,
  "scenes": [
    {
      "name": "Sketchfab_Scene",
      "nodes": [0]
    }
  ],
  "textures": [
    {
      "sampler": 0,
      "source": 0
    },
    {
      "sampler": 0,
      "source": 1
    },
    {
      "sampler": 0,
      "source": 2
    },
    {
      "sampler": 0,
      "source": 3
    }
  ]
}
